<svg width="230" height="274" viewBox="0 0 230 274" fill="none" xmlns="http://www.w3.org/2000/svg">
<style>
    /* Default color for Light Mode */
    path { fill: #1A1A18; transition: fill 0.3s ease; }

    /* Color for Dark Mode */
    @media (prefers-color-scheme: dark) {
      path { fill: #F7F4EC; }
    }
  </style>
<path d="M41.3495 270.548C29.0982 270.548 19.5694 265.273 12.7631 254.723C5.95676 244.174 2.55361 228.689 2.55361 208.27C2.55361 188.872 5.27613 169.474 10.7212 150.076C16.1662 130.338 23.6531 111.621 33.182 93.9245C42.7108 76.2281 53.4307 60.5736 65.3417 46.961C77.5931 33.3484 90.3549 22.6285 103.627 14.8012C117.24 6.63366 130.682 2.54987 143.954 2.54987C150.42 2.54987 156.546 3.91112 162.331 6.63364C168.117 9.01584 172.881 12.9295 176.625 18.3745C178.667 21.4374 180.709 22.9688 182.75 22.9688C184.792 22.9688 186.834 21.4374 188.876 18.3745C192.62 12.9295 195.682 9.52632 198.065 8.16508C200.447 6.46348 202.659 5.6127 204.701 5.6127C209.125 5.6127 210.826 7.9949 209.805 12.7593L164.373 208.27C159.269 230.391 162.672 241.451 174.583 241.451C182.41 241.451 189.387 236.176 195.512 225.626C201.978 215.077 208.444 198.741 214.91 176.621C215.931 172.878 218.143 171.006 221.546 171.006C223.929 171.006 225.46 172.027 226.141 174.069C226.821 176.111 226.821 178.493 226.141 181.215C219.675 213.205 210.997 236.176 200.106 250.129C189.216 263.742 176.114 270.548 160.8 270.548C147.528 270.548 137.999 264.933 132.214 253.702C126.769 242.472 126.258 227.158 130.682 207.76L137.318 179.684C137.999 177.302 137.488 175.94 135.787 175.6C134.426 175.26 133.235 176.111 132.214 178.152C113.496 212.524 96.8209 236.516 82.1873 250.129C67.8941 263.742 54.2815 270.548 41.3495 270.548ZM54.1113 244.514C62.2789 244.514 71.2972 239.579 81.1664 229.71C91.0355 219.841 100.734 207.079 110.263 191.425C120.132 175.77 129.151 158.925 137.318 140.888C145.486 122.851 151.952 105.495 156.716 88.8197C161.821 72.1443 164.373 58.0212 164.373 46.4505C164.373 25.6913 157.057 15.3117 142.423 15.3117C133.575 15.3117 124.216 19.3955 114.347 27.563C104.478 35.3903 94.9491 46.1102 85.7606 59.7228C76.9124 73.3354 68.7449 88.8197 61.2579 106.176C54.1113 123.192 48.326 141.058 43.9019 159.775C39.4778 178.152 37.2657 196.189 37.2657 213.886C37.2657 225.797 38.627 233.964 41.3495 238.388C44.4124 242.472 48.6663 244.514 54.1113 244.514Z"/>
<path d="M221.547 168.456C223.095 168.456 224.607 168.786 225.899 169.647C227.213 170.524 228.073 171.798 228.561 173.262C229.435 175.884 229.379 178.783 228.616 181.836C222.129 213.88 213.368 237.29 202.12 251.702L202.1 251.722C190.801 265.845 177.002 273.103 160.799 273.103C153.799 273.103 147.632 271.617 142.404 268.536C137.168 265.451 133.027 260.853 129.946 254.872L129.916 254.817C124.106 242.835 123.711 226.843 128.191 207.195L128.196 207.175L134.837 179.099L134.846 179.039L134.866 178.984C134.921 178.794 134.952 178.623 134.981 178.476C134.844 178.666 134.68 178.929 134.498 179.294L134.478 179.333L134.453 179.373C115.715 213.783 98.8844 238.064 83.9438 251.971L83.9488 251.976C69.425 265.808 55.2107 273.102 41.3513 273.103C28.2076 273.103 17.8804 267.365 10.6182 256.109C3.42721 244.963 0.00011068 228.903 0 208.272C0 188.632 2.75972 169.002 8.26527 149.388C13.76 129.473 21.3129 110.577 30.9324 92.7126C40.542 74.8663 51.3702 59.0509 63.4202 45.2795L63.4451 45.2546C75.8384 31.4843 88.7952 20.5838 102.329 12.6023C116.255 4.24992 130.141 2.24855e-06 143.954 0C150.747 0 157.202 1.42534 163.296 4.27222C169.173 6.69215 174.072 10.5747 177.962 15.8526L178.73 16.9293L178.75 16.9593C180.687 19.8643 182.061 20.4178 182.748 20.4189L182.75 22.9688L181.985 22.8965C180.199 22.5618 178.411 21.0543 176.625 18.3745C173.116 13.2703 168.709 9.51156 163.406 7.09876L162.331 6.63364C157.269 4.25164 151.945 2.90982 146.362 2.61218L143.954 2.54987C130.682 2.54987 117.24 6.63366 103.627 14.8012C90.3549 22.6285 77.5931 33.3484 65.3417 46.961C53.4307 60.5736 42.7108 76.2281 33.182 93.9245C23.6531 111.621 16.1662 130.338 10.7212 150.076C5.27613 169.474 2.55361 188.872 2.55361 208.27L2.59224 212.041C2.99093 230.605 6.38252 244.833 12.7631 254.723C19.1438 264.613 27.917 269.867 39.083 270.486L41.3495 270.548C54.2815 270.548 67.8941 263.742 82.1873 250.129C95.9062 237.367 111.422 215.485 128.73 184.478L132.214 178.152C133.235 176.111 134.426 175.26 135.787 175.6C137.488 175.94 137.999 177.302 137.318 179.684L130.682 207.76L129.911 211.348C126.342 229.055 127.109 243.174 132.214 253.702C137.638 264.231 146.352 269.823 158.356 270.481L160.8 270.548C175.156 270.548 187.569 264.567 198.037 252.604L200.106 250.129C210.997 236.176 219.675 213.205 226.141 181.215C226.736 178.833 226.809 176.713 226.363 174.852L226.141 174.069C225.545 172.282 224.298 171.276 222.399 171.053L221.546 171.006C218.143 171.006 215.931 172.878 214.91 176.621C208.444 198.741 201.978 215.077 195.512 225.626C189.387 236.176 182.41 241.451 174.583 241.451L174.583 238.9C181.064 238.9 187.365 234.576 193.307 224.344L193.336 224.294C199.623 214.037 206.012 197.959 212.459 175.904C213.062 173.719 214.082 171.816 215.685 170.46C217.329 169.068 219.353 168.456 221.547 168.456ZM161.821 46.451C161.821 36.2934 160.018 29.1305 156.801 24.5665C153.699 20.1661 149.056 17.8668 142.424 17.8665C134.386 17.8665 125.584 21.5774 115.973 29.5316L115.933 29.5615C106.32 37.1857 96.9612 47.694 87.877 61.152C79.1281 74.6172 71.0318 89.9603 63.5997 107.189C56.5147 124.062 50.7771 141.788 46.3862 160.365L46.3812 160.375C42.0015 178.569 39.8159 196.404 39.8159 213.885C39.8159 219.755 40.153 224.627 40.8029 228.526C41.4473 232.393 42.3816 235.145 43.4749 236.961C46.0121 240.283 49.4584 241.961 54.1131 241.961L54.1113 244.514L53.1061 244.488C48.4713 244.265 44.7501 242.48 41.9395 239.129L41.3495 238.388C38.627 233.964 37.2657 225.797 37.2657 213.886C37.2658 197.295 39.2077 180.405 43.096 163.217L43.9019 159.775C48.326 141.058 54.1113 123.192 61.2579 106.176C68.7449 88.8197 76.9124 73.3354 85.7606 59.7228C94.3747 46.9613 103.286 36.7399 112.498 29.063L114.347 27.563C124.216 19.3955 133.575 15.3117 142.423 15.3117L143.775 15.3441C157.507 15.9733 164.373 26.3408 164.373 46.4505L164.343 48.6494C164.044 59.7961 161.502 73.1864 156.716 88.8197C151.952 105.495 145.486 122.851 137.318 140.888L134.213 147.598C126.881 163.119 118.898 177.728 110.263 191.425L108.475 194.329C99.5224 208.665 90.4185 220.458 81.1664 229.71L79.3276 231.502C70.1752 240.177 61.7683 244.513 54.1113 244.514L54.1131 241.961C61.258 241.96 69.6559 237.615 79.3625 227.908C89.0513 218.219 98.6276 205.628 108.082 190.096L108.102 190.066C117.904 174.518 126.869 157.774 134.991 139.837C143.114 121.899 149.538 104.661 154.263 88.1213L154.273 88.0715C159.337 71.5289 161.821 57.6747 161.821 46.451ZM204.702 3.06084C207.299 3.0612 209.835 3.76443 211.372 5.9173C212.847 7.98225 212.865 10.6591 212.3 13.2952L212.29 13.3401L166.861 208.85C164.331 219.816 164.042 227.55 165.535 232.405C166.26 234.761 167.369 236.32 168.74 237.31C170.117 238.304 172.001 238.9 174.583 238.9L174.583 241.451L173.491 241.418C162.467 240.748 159.429 229.699 164.373 208.27L209.805 12.7593C210.762 8.29351 209.327 5.923 205.5 5.64311L204.701 5.6127C202.659 5.6127 200.447 6.46348 198.065 8.16508C195.682 9.52632 192.62 12.9295 188.876 18.3745C186.834 21.4374 184.792 22.9688 182.75 22.9688L182.748 20.4189C183.435 20.4189 184.812 19.8675 186.751 16.9593L186.771 16.9293C190.415 11.6296 193.694 7.8316 196.582 6.08678C199.216 4.20561 201.943 3.06084 204.702 3.06084Z"/>
</svg>
